<?xml version="1.0" encoding="UTF-8" standalone="no"?>
<!DOCTYPE svg PUBLIC "-//W3C//DTD SVG 1.1//EN" "http://www.w3.org/Graphics/SVG/1.1/DTD/svg11.dtd">
<svg width="100%" height="100%" viewBox="0 0 16 16" version="1.1" xmlns="http://www.w3.org/2000/svg" xmlns:xlink="http://www.w3.org/1999/xlink" xml:space="preserve" xmlns:serif="http://www.serif.com/" style="fill-rule:evenodd;clip-rule:evenodd;stroke-linejoin:round;stroke-miterlimit:2;">
    <path d="M5.5,5.5C5.774,5.5 6,5.726 6,6L6,12C6,12.274 5.774,12.5 5.5,12.5C5.226,12.5 5,12.274 5,12L5,6C5,5.726 5.226,5.5 5.5,5.5M8,5.5C8.274,5.5 8.5,5.726 8.5,6L8.5,12C8.5,12.274 8.274,12.5 8,12.5C7.726,12.5 7.5,12.274 7.5,12L7.5,6C7.5,5.726 7.726,5.5 8,5.5M11,6C11,5.726 10.774,5.5 10.5,5.5C10.226,5.5 10,5.726 10,6L10,12C10,12.274 10.226,12.5 10.5,12.5C10.774,12.5 11,12.274 11,12L11,6Z" style="fill:rgb(255,0,0);fill-rule:nonzero;"/>
    <path d="M14.5,3C14.5,3.549 14.049,4 13.5,4L13,4L13,13C13,14.097 12.097,15 11,15L5,15C3.903,15 3,14.097 3,13L3,4L2.5,4C1.951,4 1.5,3.549 1.5,3L1.5,2C1.5,1.451 1.951,1 2.5,1L6,1C6,0.451 6.451,0 7,0L9,0C9.549,-0 10,0.451 10,1L13.5,1C14.049,1 14.5,1.451 14.5,2L14.5,3ZM4.118,4L4,4.059L4,13C4,13.549 4.451,14 5,14L11,14C11.549,14 12,13.549 12,13L12,4.059L11.882,4L4.118,4ZM2.5,3L13.5,3L13.5,2L2.5,2L2.5,3Z" style="fill:rgb(255,0,0);fill-rule:nonzero;"/>
</svg>
